<svg xmlns="http://www.w3.org/2000/svg" version="1.1" xmlns:xlink="http://www.w3.org/1999/xlink" xmlns:svgjs="http://svgjs.com/svgjs" width="1440" height="560" preserveAspectRatio="none" viewBox="0 0 1440 560"><g mask="url(&quot;#SvgjsMask1011&quot;)" fill="none"><rect width="1440" height="560" x="0" y="0" fill="#0e2a47"></rect><path d="M 0,4 C 57.6,50.4 172.8,215.4 288,236 C 403.2,256.6 460.8,117.4 576,107 C 691.2,96.6 748.8,203.8 864,184 C 979.2,164.2 1036.8,-4.2 1152,8 C 1267.2,20.2 1382.4,197.6 1440,245L1440 560L0 560z" fill="#184a7e"></path><path d="M 0,450 C 96,425.8 288,309.4 480,329 C 672,348.6 768,553.8 960,548 C 1152,542.2 1344,349.6 1440,300L1440 560L0 560z" fill="#2264ab"></path></g><defs><mask id="SvgjsMask1011"><rect width="1440" height="560" fill="#ffffff"></rect></mask></defs></svg>